Coordinates
version=1
nRows=17
nColumns=40
inDegrees=yes

Units are S.I. units (second, meters, Newtons, ...)
Angles are in degrees.

endheader
time	pelvis_tilt	pelvis_list	pelvis_rotation	pelvis_tx	pelvis_ty	pelvis_tz	hip_flexion_r	hip_adduction_r	hip_rotation_r	knee_angle_r	knee_angle_r_beta	ankle_angle_r	subtalar_angle_r	mtp_angle_r	hip_flexion_l	hip_adduction_l	hip_rotation_l	knee_angle_l	knee_angle_l_beta	ankle_angle_l	subtalar_angle_l	mtp_angle_l	lumbar_extension	lumbar_bending	lumbar_rotation	arm_flex_r	arm_add_r	arm_rot_r	elbow_flex_r	pro_sup_r	wrist_flex_r	wrist_dev_r	arm_flex_l	arm_add_l	arm_rot_l	elbow_flex_l	pro_sup_l	wrist_flex_l	wrist_dev_l
      1.33000000	     -2.28723482	     -4.45716860	      7.16961365	      0.34606718	      0.94224027	     -1.03440391	     21.62722532	      5.38624026	    -14.50081794	    -27.24787907	     -0.47556520	      4.16545681	    -13.60309121	      7.88222753	     11.89366753	     12.99527827	      6.01852386	    -61.15562993	     -1.06736710	      0.90101505	     18.47761291	     15.82118005	     -0.14480386	      4.57015816	     -8.10033099	     -5.29522914	     -9.62604278	    -18.38436786	     14.30933704	     89.95437384	      0.00000000	      0.00000000	      3.68138189	     12.12510419	      8.76076784	     36.65333642	     89.95437384	      0.00000000	      0.00000000
      1.34000000	     -2.25272936	     -4.12200055	      7.44903888	      0.35778101	      0.94485176	     -1.03406660	     20.33217878	      5.03232343	    -15.12559371	    -26.58494305	     -0.46399479	      4.63356961	    -12.98664542	      7.56285711	     13.71820633	     11.92420640	      4.86813861	    -61.60789441	     -1.07526060	      2.15800671	     18.41967524	     15.43092442	     -0.37933804	      4.16530747	     -8.10093405	     -4.74895036	     -9.61397354	    -18.42637060	     14.87435103	     89.95437384	      0.00000000	      0.00000000	      3.16479773	     11.80037145	      8.66523912	     34.39399047	     89.95437384	      0.00000000	      0.00000000
      1.35000000	     -2.30401987	     -3.70114240	      7.54781518	      0.36958000	      0.94735048	     -1.03334455	     19.09279380	      4.70825785	    -15.44878185	    -25.86556780	     -0.45143932	      5.13585370	    -12.42163503	      7.25708281	     15.42932504	     10.77490575	      4.00633363	    -61.57411909	     -1.07467111	      3.13344316	     18.40694323	     15.06008313	     -0.50862371	      3.61985600	     -7.99716911	     -4.05749186	     -9.61865407	    -18.30279962	     15.24404784	     89.95437384	      0.00000000	      0.00000000	      2.50224123	     11.61169069	      8.36628128	     32.23497347	     89.95437384	      0.00000000	      0.00000000
      1.36000000	     -2.38726008	     -3.23576805	      7.53916130	      0.38125190	      0.94964500	     -1.03260502	     17.89433543	      4.34221805	    -15.76179265	    -25.14794255	     -0.43891440	      5.61987624	    -11.77274776	      6.93475873	     17.04276636	      9.59302890	      3.35942275	    -61.21642023	     -1.06842809	      4.04424816	     18.28660934	     14.69991762	     -0.63952604	      3.06052032	     -7.75883070	     -3.47602395	     -9.63122557	    -18.22860917	     15.86994009	     89.95437384	      0.00000000	      0.00000000	      1.92449590	     11.41049392	      8.04646584	     29.94304879	     89.95437384	      0.00000000	      0.00000000
      1.37000000	     -2.44936721	     -2.73146134	      7.37701876	      0.39340573	      0.95186117	     -1.03163685	     16.58654032	      3.97731757	    -16.06375571	    -24.32385788	     -0.42453141	      6.09789120	    -10.93451943	      6.60556415	     18.43592990	      8.51749498	      3.10907107	    -60.41757502	     -1.05448561	      4.72695466	     18.10444253	     14.49185409	     -0.72174505	      2.43158561	     -7.41493442	     -2.92570381	     -9.62282482	    -18.17689613	     16.52074790	     89.95437384	      0.00000000	      0.00000000	      1.29431322	     11.24855936	      7.71944528	     27.58115311	     89.95437384	      0.00000000	      0.00000000
      1.38000000	     -2.07971669	     -2.03264557	      7.08218493	      0.40617367	      0.95468932	     -1.03060943	     14.72947777	      3.38036878	    -16.71698435	    -23.52737955	     -0.41063024	      6.90550010	     -9.10321731	      5.74948123	     19.02474252	      7.45360521	      3.38212452	    -59.02586231	     -1.03019564	      5.08813678	     17.95133285	     14.55262950	     -1.27991256	      1.63266636	     -6.86502335	     -2.45977899	     -9.63103221	    -18.03689490	     17.38689165	     89.95437384	      0.00000000	      0.00000000	      0.66829879	     11.16928353	      7.21455479	     25.34569787	     89.95437384	      0.00000000	      0.00000000
      1.39000000	     -2.34075298	     -1.59304209	      6.66566324	      0.41837134	      0.95613225	     -1.02898342	     13.66304338	      3.20969472	    -16.59801000	    -22.63231083	     -0.39500834	      7.28985481	     -8.51062325	      5.42014775	     20.45277501	      6.68149702	      3.67121675	    -57.63704430	     -1.00595619	      5.28310016	     17.72007271	     14.40889929	     -1.08345970	      1.00930786	     -6.33911145	     -1.87805660	     -9.63857967	    -17.78714868	     17.96787038	     89.95437384	      0.00000000	      0.00000000	     -0.16338144	     11.11292668	      6.78132918	     23.28061889	     89.95437384	      0.00000000	      0.00000000
      1.40000000	     -2.19411067	     -0.96753173	      5.87656417	      0.43108585	      0.95806766	     -1.02694090	     12.18393638	      2.87099018	    -16.46238919	    -21.89596330	     -0.38215665	      7.78084517	     -7.52226807	      4.81133897	     21.06678919	      6.03767569	      4.73034559	    -55.68282863	     -0.97184870	      5.39938192	     17.54586192	     14.32800089	     -1.34235580	      0.23360356	     -5.34323257	     -1.43541873	     -9.65761696	    -17.47861519	     18.85949086	     89.95437384	      0.00000000	      0.00000000	     -0.92771713	     11.09602052	      6.17707653	     21.27675687	     89.95437384	      0.00000000	      0.00000000
      1.41000000	     -2.06582851	     -0.09876344	      5.15081018	      0.44404370	      0.95967779	     -1.02525505	     10.71657124	      2.08940072	    -16.64362840	    -21.12198080	     -0.36864811	      6.86198354	     -6.10788726	     -4.63169678	     21.53682140	      5.07014851	      5.74312831	    -53.40730761	     -0.93213336	      5.59142171	     17.29829023	     13.89673531	     -1.51968861	     -0.81730075	     -4.52544669	     -0.92258491	     -9.67564771	    -17.00627563	     19.56656754	     89.95437384	      0.00000000	      0.00000000	     -1.97716563	     11.18246759	      5.28172272	     19.71417833	     89.95437384	      0.00000000	      0.00000000
      1.42000000	     -2.41138098	      0.29654035	      4.40071006	      0.45651762	      0.96012397	     -1.02300521	      9.90923733	      1.99286761	    -16.03115361	    -20.39963364	     -0.35604077	      7.12571812	     -5.72930422	     -4.66398448	     22.68915634	      4.70608187	      6.74054087	    -51.15014408	     -0.89273843	      5.75666181	     16.84519540	     13.73414135	     -1.12084710	     -1.41012693	     -3.66748161	     -0.51407567	     -9.71444442	    -16.61597379	     20.42926496	     89.95437384	      0.00000000	      0.00000000	     -3.02011247	     11.18661620	      4.83984914	     18.11466547	     89.95437384	      0.00000000	      0.00000000
      1.43000000	     -2.05351120	      1.06576312	      3.28153297	      0.46965235	      0.96155039	     -1.02050112	      8.39604299	      1.48705557	    -15.26286547	    -19.97341750	     -0.34860190	      7.61699828	     -5.23677269	     -5.04701082	     22.60611528	      4.19616243	      8.37703549	    -48.20848366	     -0.84139677	      5.84529897	     16.42507101	     13.53047911	     -1.49264245	     -2.34347493	     -2.43675363	     -0.08584798	     -9.76016031	    -16.03607587	     21.35751031	     89.95437384	      0.00000000	      0.00000000	     -4.11493550	     11.26545913	      4.03881882	     16.84958491	     89.95437384	      0.00000000	      0.00000000
      1.44000000	     -2.17018871	      1.61002820	      2.31414444	      0.48235126	      0.96178824	     -1.01834605	      7.43107584	      1.15786539	    -14.51796359	    -19.43875105	     -0.33927021	      8.04986145	     -4.92921496	     -5.36864767	     23.14676524	      3.78561833	      9.63525003	    -45.24874923	     -0.78973966	      5.84283010	     15.75368943	     13.33074591	     -1.29097821	     -3.03891467	     -1.41446128	      0.29852475	     -9.87126954	    -15.45359645	     22.34620235	     89.95437384	      0.00000000	      0.00000000	     -5.30647924	     11.29821138	      3.29518966	     15.66014276	     89.95437384	      0.00000000	      0.00000000
      1.45000000	     -2.60576315	      1.49322058	      1.86804096	      0.49474797	      0.96099801	     -1.01660772	      6.92521952	      1.43599949	    -14.63786974	    -19.08789912	     -0.33314669	      8.41882086	     -4.86820779	     -5.41925073	     24.37939069	      3.93143393	     10.17341495	    -42.65902058	     -0.74454036	      6.01655459	     15.41983523	     13.23493278	     -0.73484017	     -3.01546058	     -0.99879340	      0.87490990	     -9.95139986	    -15.28801974	     23.05721353	     89.95437384	      0.00000000	      0.00000000	     -6.70547251	     11.23750924	      3.10576505	     14.83044233	     89.95437384	      0.00000000	      0.00000000
      1.46000000	     -2.15002039	      2.69950613	      0.43739609	      0.50803534	      0.96186314	     -1.01424705	      5.25120013	      0.36615947	    -13.17526382	    -18.46692511	     -0.32230865	      9.11684240	     -3.97859540	     -6.09621236	     23.64609897	      2.96731556	     11.86751269	    -38.66989621	     -0.67491701	      5.37983546	     14.14644747	     12.87322106	     -1.09247584	     -4.39492862	      0.54007581	      1.04862099	    -10.14696312	    -14.12843494	     24.39728285	     89.95437384	      0.00000000	      0.00000000	     -7.86764232	     11.37744532	      1.88539383	     13.88910226	     89.95437384	      0.00000000	      0.00000000
      1.47000000	     -2.16146703	      3.13257895	     -0.41550294	      0.52098792	      0.96145258	     -1.01248630	      4.13849828	     -0.00661644	    -12.84200898	    -17.89915672	     -0.31239922	      9.60388939	     -3.29492552	     -6.96103711	     23.84639311	      2.66339142	     12.83800746	    -35.21320293	     -0.61458633	      4.97029175	     13.22930167	     12.43206992	     -0.92234202	     -4.92530038	      1.46403669	      1.36420485	    -10.34133569	    -13.44478194	     25.44181615	     89.95437384	      0.00000000	      0.00000000	     -9.16822597	     11.41346096	      1.00198425	     13.15576553	     89.95437384	      0.00000000	      0.00000000
      1.48000000	     -2.28230337	      3.44805049	     -1.30563865	      0.53365112	      0.96053478	     -1.01087631	      3.26527314	     -0.28127019	    -12.33640691	    -17.51958190	     -0.30577439	     10.09075354	     -2.79684653	     -7.51545556	     24.16091754	      2.49570832	     13.64273815	    -31.72514466	     -0.55370823	      4.41176632	     12.21927339	     12.25039876	     -0.63416387	     -5.27046828	      2.35709694	      1.62257722	    -10.63197378	    -12.58256828	     26.69388846	     89.95437384	      0.00000000	      0.00000000	    -10.44834894	     11.31449746	      0.60990977	     12.41497783	     89.95437384	      0.00000000	      0.00000000
      1.49000000	     -2.25879964	      3.70273273	     -2.07465123	      0.54636308	      0.95962222	     -1.00939663	      2.16776955	     -0.53151328	    -12.15912192	    -16.99708365	     -0.29665507	     10.53371863	     -2.04787873	     -8.28977184	     24.27818963	      2.37204973	     14.31785175	    -28.19045866	     -0.49201632	      3.77926582	     11.25808272	     11.98282563	     -0.54738026	     -5.56491817	      3.11641556	      1.89548782	    -10.91596250	    -11.82560163	     27.99881646	     89.95437384	      0.00000000	      0.00000000	    -11.74296242	     11.27200426	      0.12811456	     11.88997859	     89.95437384	      0.00000000	      0.00000000
